<?xml version="1.0"?>


<svg xmlns="http://www.w3.org/2000/svg" xml:space="preserve" width="100%" height="100%" version="1.1" style="shape-rendering:geometricPrecision; text-rendering:geometricPrecision; image-rendering:optimizeQuality; fill-rule:evenodd; clip-rule:evenodd" viewBox="2200 10800 16250 4650" xmlns:xlink="http://www.w3.org/1999/xlink" xmlns:xodm="http://www.corel.com/coreldraw/odm/2003">
 <defs>
  
 </defs>
 <g id="Capa_x0020_1">
  <metadata id="CorelCorpID_0Corel-Layer"></metadata>
  <polygon class="fil0" fill="#e73b2b" points="11082.37,11001.99 10891.14,11001.99 10912.38,10914.19 11401.97,10914.19 11380.74,11001.99 11189.19,11001.99 11079.91,11452.91 10973.09,11452.91 "></polygon>
  <path class="fil0" fill="#e73b2b" d="M11732.04 11181.25c75.76,0 132.82,-35.5 145.9,-90.02l0.55 -1.67c14.03,-57.61 -25.12,-89.23 -103.42,-89.23l-154.29 0 -43.91 180.92 155.17 0zm-196.3 -266.98l268.73 0c76,0 130.52,19.81 161.03,53.96 24.89,29.09 33.21,69.03 22.04,116.02l-0.56 1.67c-21.24,88.36 -93.67,141.45 -183.38,163.01l113.48 204.06 -124.97 0 -102.86 -187.89 -132.82 0 -45.25 187.89 -106.27 0 130.83 -538.72z"></path>
  <path class="fil0" fill="#e73b2b" d="M12467.22 11238.94l-51.99 -215.55 -155.72 215.55 207.71 0zm-72.11 -328.48l98.42 0 133.93 542.37 -112.14 0 -29.63 -129.96 -285.14 0 -93.67 129.96 -108.73 0 396.96 -542.37z"></path>
  <polygon class="fil0" fill="#e73b2b" points="12883.19,10914.27 12981.3,10914.27 13214.21,11286.65 13304.79,10914.27 13409.08,10914.27 13278.24,11452.99 13189.64,11452.99 12949.76,11069.67 12856.96,11452.99 12752.67,11452.99 "></polygon>
  <path class="fil0" fill="#e73b2b" d="M13433.73 11374.46l80.19 -67.68c47,44.46 98.43,69.9 173.64,69.9 65.37,0 113.24,-26.87 123.3,-67.68l0.24 -1.67c9.27,-38.27 -9.74,-58.96 -116.25,-82.18 -121.65,-27.73 -185.92,-61.49 -161.91,-160.79l0.56 -1.66c22.35,-92.25 123.86,-156.28 243.76,-156.28 88.13,0 152.08,24.01 202.4,67.68l-74.02 71.8c-45.56,-36.3 -95.33,-55.64 -150.41,-55.64 -62.05,0 -105.16,28.53 -113.8,64.04l-0.31 1.42c-10.07,41.69 13.15,60.07 122.51,84.72 121.01,27.66 177.52,68.47 155.65,157.62l-0.24 1.75c-24.57,100.88 -127.75,160.71 -254.39,160.71 -92.24,0 -172.52,-28.53 -230.92,-86.06z"></path>
  <path class="fil0" fill="#e73b2b" d="M14320.51 11194.33c80.19,0 139.79,-39.94 153.5,-96.13l0.24 -1.66c15.37,-62.93 -27.42,-96.21 -106.75,-96.21l-123.31 0 -46.99 194 123.31 0zm-161.35 -280.06l237.9 0c140.35,0 211.99,71.56 185.68,179.97l-0.56 1.74c-29.08,120.77 -153.18,183.93 -285.77,183.93l-119.9 0 -41.92 173.08 -105.95 0 130.52 -538.72z"></path>
  <path class="fil0" fill="#e73b2b" d="M15183.99 11185.13l0.32 -1.42c25.43,-104.85 -38.92,-191.78 -158.58,-191.78 -119.9,0 -224.19,85.51 -249.63,190.11l-0.24 1.67c-25.44,104.53 38.83,191.46 158.5,191.46 119.9,0 224.19,-85.51 249.63,-190.04zm-519.71 0l0.24 -1.42c36.93,-151.84 198.52,-278.72 383.88,-278.72 185.36,0 284.34,125.53 247.41,277.05l-0.24 1.67c-36.93,151.52 -198.52,278.47 -383.88,278.47 -185.36,0 -284.34,-125.52 -247.41,-277.05z"></path>
  <path class="fil0" fill="#e73b2b" d="M15707.34 11181.25c75.76,0 132.82,-35.5 145.97,-90.02l0.56 -1.67c13.95,-57.61 -25.12,-89.23 -103.42,-89.23l-154.37 0 -43.83 180.92 155.09 0zm-196.22 -266.98l268.65 0c76.08,0 130.6,19.81 161.03,53.96 24.89,29.09 33.29,69.03 22.11,116.02l-0.55 1.67c-21.24,88.36 -93.67,141.45 -183.38,163.01l113.48 204.06 -124.97 0 -102.86 -187.89 -132.82 0 -45.25 187.89 -106.28 0 130.84 -538.72z"></path>
  <polygon class="fil0" fill="#e73b2b" points="16280.3,11001.99 16089.08,11001.99 16110.31,10914.19 16599.91,10914.19 16578.59,11001.99 16387.13,11001.99 16277.84,11452.91 16171.02,11452.91 "></polygon>
  <polygon class="fil0" fill="#e73b2b" points="16733.6,10914.27 17180.87,10914.27 17160.5,10998.9 16819.1,10998.9 16785.03,11139.01 17087.52,11139.01 17067.15,11223.73 16764.58,11223.73 16729.4,11368.28 17075.23,11368.28 17054.55,11452.99 16603,11452.99 "></polygon>
  <path class="fil0" fill="#e73b2b" d="M17180.63 11374.46l80.2 -67.68c46.99,44.46 98.43,69.9 173.63,69.9 65.46,0 113.25,-26.87 123.31,-67.68l0.24 -1.67c9.27,-38.27 -9.75,-58.96 -116.26,-82.18 -121.64,-27.73 -185.91,-61.49 -161.9,-160.79l0.56 -1.66c22.34,-92.25 124.18,-156.28 243.76,-156.28 87.81,0 152.16,24.01 202.48,67.68l-74.1 71.8c-45.57,-36.3 -95.33,-55.64 -150.41,-55.64 -62.05,0 -105.16,28.53 -113.8,64.04l-0.32 1.42c-10.06,41.69 13.16,60.07 122.52,84.72 121.01,27.66 177.51,68.47 155.72,157.62l-0.32 1.75c-24.56,100.88 -127.74,160.71 -254.38,160.71 -92.24,0 -172.52,-28.53 -230.93,-86.06z"></path>
  <path class="fil1" fill="#e73b2b" d="M15705.03 14440.57c-88.84,0 -125.21,-4.76 -187.82,92.8l-85.59 208.58c-29.32,53.41 1.67,108.72 62.37,109.04l1422.18 0.24c266.11,0 527.79,-163.01 624.79,-410.66l-1835.93 0z"></path>
  <path class="fil1" fill="#e73b2b" d="M2288.8 11631.56l2240.73 -14.51c0,0 729.39,6.42 710.93,539.52 0,0 1.42,66.25 -3.09,144.31 -6.98,125.21 -26.55,193.13 -110.4,214.92 -41.68,10.94 -360.97,0.87 -360.97,0.87 0,0 -102.31,-7.84 -83.53,-145.34 18.71,-137.57 37.17,-258.11 -120.53,-267.3 -157.39,-9.19 -1658.65,-4.75 -1658.65,-4.75 0,0 -524.23,33.52 -614.49,-467.72z"></path>
  <path class="fil0" fill="#e73b2b" d="M5281.98 14213.05l381.9 0.55c29.56,0 55.63,-9.82 78.77,-29.95 22.98,-19.58 36.61,-45.57 41.37,-77.19l147.95 -975.7c10.3,-68.71 12.52,-204.3 176.09,-230.29 232.35,-36.93 189.01,-28.29 327.93,-47.55 359.54,-50.64 312.55,99.77 251.92,451.47l-121.09 803.26c-4.75,30.75 1.11,56.18 17.36,76.55 16.24,20.68 39.7,30.75 70.45,30.75l380.23 0.87c30.43,0 57.3,-10.06 80.2,-29.95 22.9,-19.82 36.93,-45.57 41.68,-77.43l152.32 -1008.98c43.11,-286.01 82.81,-467.96 -35.19,-607.2 -117.68,-138.92 -335.22,-129.96 -573.12,-99.77 -238.77,30.43 -438.4,55.32 -675.19,91.14l116.02 -745.88c4.76,-31.62 -1.11,-57.93 -17.27,-78.3 -16.25,-20.44 -39.71,-30.75 -70.22,-30.75l-382.13 -0.55c-29.4,-0.32 -55.63,10.06 -78.85,30.43 -22.9,20.45 -36.93,46.68 -41.69,78.3l-357.24 2368.79c-4.76,31.54 0.79,57.29 17.35,77.18 16.17,20.13 39.7,30.2 70.45,30.2z"></path>
  <path class="fil0" fill="#e73b2b" d="M7981.39 12097.85l211.36 0.32c61.49,0.23 112.37,-18.15 152.63,-55.4 40.26,-37.17 65.14,-87.49 74.65,-150.96l9.51 -61.18c9.75,-64.59 -0.32,-115.47 -30.19,-151.84 -29.64,-36.85 -74.66,-55.08 -134.8,-55.32l-211.36 -0.31c-61.49,0 -112.37,18.46 -152.63,55.63 -40.26,37.16 -65.14,87.49 -74.89,150.96l-9.27 61.26c-9.51,63.48 0.56,113.8 30.19,150.97 29.64,37.17 74.42,55.87 134.8,55.87z"></path>
  <path class="fil0" fill="#e73b2b" d="M7581.67 14216.53l381.89 0.56c29.64,0 55.95,-9.75 78.62,-29.64 22.9,-19.81 36.85,-45.25 41.6,-76.87l257.48 -1716.03c4.51,-30.43 -1.35,-55.87 -17.6,-76.31 -16.16,-20.37 -39.7,-30.43 -70.13,-30.75l-382.21 -0.56c-29.64,0 -55.63,9.83 -78.54,29.64 -22.9,19.89 -36.61,45.57 -41.36,76.87l-257.48 1716.27c-5.07,31.62 0.79,57.06 17.28,76.87 16.24,20.13 39.7,29.95 70.45,29.95z"></path>
  <path class="fil0" fill="#e73b2b" d="M9837.37 13653.48c-105.4,219.44 -237.9,175.85 -417.39,175.53 -171.65,-0.23 -286.25,-45.56 -343.62,-135.83 -57.3,-90.02 -70.45,-235.92 -40.26,-437.21 30.75,-203.58 87.25,-350.03 169.43,-439.5 81.94,-89.47 206.6,-113.49 370.17,-133.93 211.59,-26 332.36,-47.23 383.87,62.92 41.05,85.83 -66.56,233.15 142.25,231.72l257.48 0.56c31.06,0 58.17,-10.07 81.39,-29.88 23.22,-20.13 37.16,-45.89 42.23,-77.74 30.2,-201.29 44.15,-434.44 -109.59,-537.62 -154.06,-103.42 -211.68,-132.5 -703.17,-79.96 -320.95,34.39 -645.23,88.12 -846.76,256.37 -201.84,168.32 -327.37,417.16 -377.14,746.19 -49.53,327.37 1.66,575.66 153.42,744.77 152.16,169.12 394.5,254.15 727.5,254.7 304.7,0.24 549.34,-50.87 733.59,-154.05 184.49,-103.18 291.87,-255.82 322.3,-457.98 4.52,-29.87 -1.66,-55.07 -18.7,-75.44 -17.04,-20.13 -41.37,-30.19 -72.43,-30.51l-257.48 -0.24c-133.37,-2.22 -161.03,33.84 -197.09,117.13z"></path>
  <path class="fil0" fill="#e73b2b" d="M5025.14 13519.23c-17.04,-20.12 -41.05,-30.51 -72.11,-30.51l-257.72 -0.23c-133.13,-2.3 -142.33,9.19 -176.4,82.73 -0.64,1.11 -4.2,15.06 -25.52,38.59 -114.59,103.11 -245.99,152.64 -407.25,152.64 -158.58,0 -276.82,-42.8 -353.45,-125.85 -4.2,-4.44 -8.64,-8.64 -12.28,-13.16 -104.85,-127.43 -127.19,-348.61 -66.49,-656.09 75.2,-342.74 205.17,-573.67 392.75,-697.53l-127.19 -0.56 -599.11 -0.32c-122.2,185.68 -212.78,412.09 -273.73,685.58 -87.17,449.25 -41.92,785.82 134.49,999.7 156.83,190.36 419.38,286.8 779.71,286.8 223.09,0 421.6,-38.51 594.92,-115.7 59.59,-20.45 115.22,-44.46 165.78,-72.67 112.69,-62.92 195.98,-144.55 251.38,-244.4 14.82,-26.79 27.34,-54.76 37.96,-84.16 14.82,-40.81 26.31,-83.53 33.04,-129.41 4.76,-29.88 -1.66,-55.08 -18.78,-75.45z"></path>
  <path class="fil0" fill="#e73b2b" d="M10590.54 14221.29l381.9 0.55c29.64,0 55.63,-9.74 78.85,-29.87 22.66,-19.58 36.61,-45.65 41.37,-77.19l356.69 -2383.29c4.75,-31.62 -0.79,-57.62 -17.04,-78.3 -16.17,-20.45 -39.7,-30.75 -70.45,-30.75l-381.89 -0.55c-29.64,0 -55.87,10.06 -78.86,30.43 -22.9,20.44 -36.85,46.68 -41.6,78.3l-356.77 2383.29c-5,31.62 0.87,57.29 17.35,77.19 16.25,20.12 39.7,30.19 70.45,30.19z"></path>
  <path class="fil0" fill="#e73b2b" d="M16977.98 13738.59c-88.12,115.15 -249.95,132.19 -416.84,138.37 -152.08,5.86 -239.88,-46.44 -295.83,-142.57 -56.19,-96.2 -68.47,-248.6 -36.85,-457.1 31.54,-208.9 89.71,-360.42 174.74,-455.43 84.95,-94.78 174.42,-94.78 330.7,-116.9 143.67,-19.81 309.78,-53.96 366.52,41.13 30.43,51.12 43.9,102.08 41.6,189.56 0,0 6.18,580.34 -164.04,802.94zm673.76 -1190.46c-159.68,-234.25 -375.47,-354.15 -929.57,-274.27 -301.7,43.35 -573.99,121.64 -713.78,255.57 -189.48,181.95 -307.8,406.46 -357.57,735.26 -49.77,328.8 1.11,577.56 152.63,746.75 151.29,168.8 393.39,253.83 726.39,254.07 332.91,0.55 601.01,-83.29 803.73,-251.85 202.71,-168.32 329.03,-417.16 378.8,-745.88 49.53,-328.8 67.12,-532.3 -60.63,-719.65z"></path>
  <path class="fil0" fill="#e73b2b" d="M13657.74 12397.72c-1.98,-9.51 -2.22,-18.23 -1.11,-26.63 2.54,-16.48 10.39,-31.54 24.02,-45.56 20.12,-21.24 44.77,-32.41 73.54,-33.21l357.56 0.56c32.97,0 62.93,11.41 89.79,34.07 26.55,22.91 41.92,51.44 46.12,85.27l110.71 746.75c28.21,183.38 65.7,310.58 112.61,381.34 47,70.69 109.6,105.96 188.45,105.96l523.35 -1232.38c14.27,-33.84 36.62,-62.29 66.81,-84.95 30.51,-22.99 62.05,-34.4 95.1,-34.4l361.45 0.56c28.52,0.23 49.21,11.49 61.81,33.84 8.95,15.37 12.28,31.85 9.51,49.45 -0.87,6.97 -3.41,14.81 -6.74,22.9l-696.11 1643.04c-123.86,290.76 -253.83,498.23 -390.53,622.65 -137.02,124.1 -304.23,185.91 -502.43,185.6 -173.08,-0.32 -319.29,-12.29 -438.64,-35.82 -29.87,-4.76 -53.09,-17.6 -69.34,-37.96 -16.16,-20.69 -22.35,-44.46 -18.15,-71.33l29.09 -193.76c4.99,-31.54 18.46,-57.85 41.05,-78.21 22.43,-20.45 48.97,-30.75 79.72,-30.75l63.16 0.24c26.31,0 62.37,3.64 108.49,10.61 46.12,7.29 83.61,10.62 111.82,10.62 160.48,0.32 290.44,-118 389.98,-354.79 -193.76,-0.24 -346.39,-60.62 -458.21,-181.16 -111.82,-120.45 -191.23,-334.34 -238.22,-641.59l-124.66 -850.96z"></path>
  <path class="fil0" fill="#e73b2b" d="M12786.97 13467.01l-22.9 155.4c-8.09,57.3 -52.31,95.66 -74.42,111.27 -126.08,88.36 -297.97,92.56 -470.49,112.37 -87.17,9.83 -159.05,-1.9 -200.73,-43.03 -41.61,-41.13 -48.9,-98.98 -39.15,-163.57 9.51,-62.05 40.26,-112.92 92.32,-152.63 52.23,-39.94 118.24,-59.51 197.88,-59.51l475.81 -0.87c2.53,0 4.51,0 6.73,0.31l40.81 0 -4.75 31.86c-0.24,2.54 -0.56,5.31 -1.11,8.4zm653.63 -1034.97c-34.63,-56.75 -75.44,-112.14 -206.28,-169.2 -132.02,-58.09 -340.84,-36.61 -617.57,-5.86 -480.01,53.17 -908.66,171.65 -959.53,507.98 -4.44,30.74 1.74,56.18 18.22,76.63 17.04,20.68 40.5,30.75 71.25,30.75l253.59 0.55c81.62,0 151.52,-30.75 209.69,-92.8 83.6,-97.31 193.12,-102.62 350.27,-123.55 134.72,-18.22 243.21,-21.87 294.41,29.01 60.07,60.39 12.6,201.61 -3.09,342.19l-561.63 0.32c-237.66,-0.32 -439.51,52.3 -606.09,157.38 -166.65,105.4 -264.76,256.37 -294.4,453.22 -29.96,197.09 22.35,349.4 156.83,457.34 134.17,108.17 320.4,162.46 557.74,162.69 231.72,1.67 447.28,-63.71 647.22,-195.66l-8.4 54.21c-4.52,30.74 1.11,56.18 17.28,76.63 16.24,20.68 39.7,30.75 70.45,30.99l329.11 0.31c30.75,0 57.3,-9.82 79.65,-29.64 22.34,-19.81 35.82,-45.56 40.57,-77.42l164.36 -1088.39c61.26,-387.99 37.48,-530.64 -3.65,-597.68z"></path>
 </g>
</svg>